<svg width="20" height="20" viewBox="0 0 20 20" fill="none" xmlns="http://www.w3.org/2000/svg">
<mask id="path-1-inside-1" fill="white">
<path fill-rule="evenodd" clip-rule="evenodd" d="M12.0613 5L17 9.93873L12.0613 14.8775L11.5273 14.3435L15.5545 10.3163L3 10.3163L3 9.5612L15.5546 9.5612L11.5273 5.53394L12.0613 5Z"/>
<path d="M3 9.53604H16.2144V10.2911H3V9.53604Z"/>
</mask>
<path fill-rule="evenodd" clip-rule="evenodd" d="M12.0613 5L17 9.93873L12.0613 14.8775L11.5273 14.3435L15.5545 10.3163L3 10.3163L3 9.5612L15.5546 9.5612L11.5273 5.53394L12.0613 5Z" fill="black"/>
<path d="M3 9.53604H16.2144V10.2911H3V9.53604Z" fill="black"/>
<path d="M12.0613 5L12.7684 4.29289L12.0613 3.58579L11.3542 4.29289L12.0613 5ZM17 9.93873L17.7071 10.6458L18.4142 9.93873L17.7071 9.23162L17 9.93873ZM12.0613 14.8775L11.3542 15.5846L12.0613 16.2917L12.7684 15.5846L12.0613 14.8775ZM11.5273 14.3435L10.8202 13.6364L10.1131 14.3435L10.8202 15.0506L11.5273 14.3435ZM15.5545 10.3163L16.2616 11.0234L17.9687 9.31631L15.5545 9.31631L15.5545 10.3163ZM3 10.3163L2 10.3163L2 11.3163L3 11.3163L3 10.3163ZM3 9.5612L3 8.5612L2 8.5612L2 9.5612L3 9.5612ZM15.5546 9.5612L15.5546 10.5612L17.9688 10.5612L16.2617 8.8541L15.5546 9.5612ZM11.5273 5.53394L10.8202 4.82683L10.1131 5.53394L10.8202 6.24105L11.5273 5.53394ZM3 9.53604V8.53604H2V9.53604H3ZM16.2144 9.53604H17.2144V8.53604H16.2144V9.53604ZM16.2144 10.2911V11.2911H17.2144V10.2911H16.2144ZM3 10.2911H2V11.2911H3V10.2911ZM10.8202 15.0506L11.3542 15.5846L12.7684 14.1703L12.2344 13.6364L10.8202 15.0506ZM2 9.5612L2 10.3163L4 10.3163L4 9.5612L2 9.5612ZM11.3542 4.29289L10.8202 4.82683L12.2344 6.24105L12.7684 5.70711L11.3542 4.29289ZM17.7071 9.23162L12.7684 4.29289L11.3542 5.70711L16.2929 10.6458L17.7071 9.23162ZM12.7684 15.5846L17.7071 10.6458L16.2929 9.23162L11.3542 14.1703L12.7684 15.5846ZM14.8474 9.6092L10.8202 13.6364L12.2344 15.0506L16.2616 11.0234L14.8474 9.6092ZM3 11.3163L15.5545 11.3163L15.5545 9.31631L3 9.31631L3 11.3163ZM15.5546 8.5612L3 8.5612L3 10.5612L15.5546 10.5612L15.5546 8.5612ZM10.8202 6.24105L14.8475 10.2683L16.2617 8.8541L12.2344 4.82683L10.8202 6.24105ZM3 10.536H16.2144V8.53604H3V10.536ZM15.2144 9.53604V10.2911H17.2144V9.53604H15.2144ZM16.2144 9.29115H3V11.2911H16.2144V9.29115ZM4 10.2911V9.53604H2V10.2911H4Z" fill="white" mask="url(#path-1-inside-1)"/>
</svg>
