<svg width="20" height="20" viewBox="0 0 20 20" fill="none" xmlns="http://www.w3.org/2000/svg">
<path fill-rule="evenodd" clip-rule="evenodd" d="M13.0966 13.4C13.3966 13.1 13.6966 12.7 13.9966 12.4C14.6966 11.4 14.9966 10.3 14.9966 9.1C14.9966 7.5 14.3966 6 13.1966 4.9C12.0966 3.6 10.5966 3 8.99657 3C7.79657 3 6.69657 3.3 5.69657 4C4.69657 4.7 3.89657 5.6 3.49657 6.7C2.99657 7.8 2.89657 9 3.09657 10.2C3.29657 11.4 3.89657 12.4 4.69657 13.3C5.49657 14.1 6.59657 14.7 7.79657 14.9C8.99657 15.1 10.1966 15 11.2966 14.5C11.6966 14.3 12.0966 14.1 12.3966 13.9L16.3966 17.9L16.9966 17.3L13.0966 13.4ZM10.9966 13.7C9.99657 14.1 8.99657 14.2 7.99657 14C6.99657 13.8 6.09657 13.3 5.39657 12.6C4.69657 11.9 4.19657 11 3.99657 10C3.79657 9 3.89657 8 4.29657 7C4.69657 6.1 5.29657 5.3 6.19657 4.7C6.99657 4.2 7.99657 3.9 8.99657 3.9C10.3966 3.9 11.6966 4.4 12.5966 5.4C13.5966 6.4 14.0966 7.7 14.0966 9C14.0966 10 13.7966 11 13.1966 11.9C12.6966 12.7 11.8966 13.3 10.9966 13.7Z" fill="white"/>
</svg>
