<svg width="481" height="82" viewBox="0 0 481 82" fill="none" xmlns="http://www.w3.org/2000/svg">
<path d="M450.73 34.4V79.87H431.24V36.63C431.24 24.05 427.18 18.97 416.24 18.97C413.223 19.0604 410.258 19.7754 407.532 21.0697C404.805 22.364 402.377 24.2097 400.4 26.49V79.87L380.9 79.87V3.33998H399.17V9.43998C404.85 3.54998 412.36 1.30998 419.87 1.30998C428.39 1.30998 435.493 3.74665 441.18 8.61998C448.08 14.31 450.73 21.61 450.73 34.4Z" fill="black"/>
<path d="M369.75 25.86C369.744 25.8303 369.744 25.7997 369.75 25.77C366.129 17.2031 359.656 10.152 351.43 5.81217C343.203 1.47233 333.73 0.11075 324.614 1.95825C315.498 3.80575 307.302 8.74866 301.415 15.949C295.527 23.1494 292.311 32.1641 292.311 41.465C292.311 50.7659 295.527 59.7806 301.415 66.981C307.302 74.1814 315.498 79.1242 324.614 80.9718C333.73 82.8193 343.203 81.4577 351.43 77.1178C359.656 72.778 366.129 65.7269 369.75 57.16C369.75 57.16 369.75 57.16 369.75 57.09C369.742 57.0708 369.742 57.0492 369.75 57.03C371.816 52.1008 372.88 46.8096 372.88 41.465C372.88 36.1204 371.816 30.8292 369.75 25.9V25.86ZM332.42 63.44C320.77 63.44 311.34 53.59 311.34 41.44C311.34 29.29 320.77 19.44 332.42 19.44C344.07 19.44 353.48 29.3 353.48 41.44C353.48 53.58 344.06 63.44 332.42 63.44Z" fill="black"/>
<path d="M288.1 2V20.07C288.1 20.07 271.86 14.6 261.72 26.16V79.53H242.24V3H261.51V5.6C261.515 5.68993 261.515 5.78007 261.51 5.87V9.12C265.17 4.86 273.09 1 279.17 1C282.179 0.897858 285.188 1.23473 288.1 2Z" fill="black"/>
<path d="M211.18 2.94V47.44C211.184 50.0585 210.528 52.6358 209.273 54.9341C208.018 57.2323 206.205 59.1775 204 60.59C201.536 62.2325 198.641 63.1089 195.68 63.1089C192.719 63.1089 189.824 62.2325 187.36 60.59C185.152 59.18 183.336 57.2357 182.079 54.937C180.822 52.6384 180.165 50.0598 180.17 47.44V2.94H160.71V47C160.689 50.5676 161.16 54.1212 162.11 57.56C162.764 59.9231 163.669 62.2095 164.81 64.38C167.55 69.6895 171.789 74.0777 177 77C182.634 80.07 188.976 81.6046 195.39 81.45C200.383 81.5289 205.344 80.6427 210 78.84C214.245 77.1853 218.084 74.6378 221.259 71.3701C224.433 68.1024 226.869 64.1908 228.4 59.9C228.69 59.12 228.96 58.32 229.2 57.5C230.193 54.0412 230.688 50.4585 230.67 46.86V2.94H211.18Z" fill="black"/>
<path d="M152.85 41.3C152.927 35.6996 152.024 30.1289 150.18 24.84C148.529 20.1442 145.955 15.8261 142.61 12.14C139.331 8.57874 135.319 5.77089 130.85 3.91C126.017 1.92569 120.834 0.935975 115.61 1C110.456 0.944213 105.346 1.96605 100.61 4C96.0797 5.97609 91.9973 8.85074 88.61 12.45C85.1385 16.1461 82.4211 20.4837 80.61 25.22C78.6529 30.2835 77.6723 35.6717 77.72 41.1C77.6603 46.6463 78.6405 52.1548 80.61 57.34C82.4203 62.1189 85.1674 66.4878 88.69 70.19C92.1606 73.8252 96.3539 76.6934 101 78.61C105.974 80.6353 111.3 81.6549 116.67 81.61C121.679 81.6114 126.649 80.7279 131.35 79C135.811 77.4131 139.928 74.9898 143.48 71.86C146.888 68.8497 149.542 65.0821 151.23 60.86H151.11L133.47 54.35L132.63 55.92C131.008 58.4632 128.808 60.5875 126.21 62.12C123.336 63.7688 120.073 64.6182 116.76 64.58C114.47 64.6551 112.189 64.2649 110.054 63.433C107.919 62.6011 105.975 61.3447 104.34 59.74C101.067 56.52 98.9967 52.07 98.13 46.39H152.84L152.85 41.3ZM98.43 32.78C99.1232 28.2967 101.225 24.1502 104.43 20.94C105.916 19.5171 107.669 18.402 109.588 17.6589C111.506 16.9158 113.553 16.5593 115.61 16.61C117.625 16.5626 119.628 16.9216 121.501 17.6655C123.373 18.4095 125.077 19.5231 126.51 20.94C129.437 23.8267 131.287 27.7733 132.06 32.78H98.43Z" fill="black"/>
<path d="M69.82 34.27V79.82H50.33V36.5C50.33 23.89 46.27 18.81 35.33 18.81C32.3119 18.898 29.3451 19.6129 26.6182 20.9093C23.8912 22.2056 21.4637 24.055 19.49 26.34V79.82H0V3.15H18.28V9.23C24 3.34 31.47 1.11 39 1.11C47.5333 1.11 54.64 3.55333 60.32 8.44C67.18 14.13 69.82 21.45 69.82 34.27Z" fill="black"/>
<path d="M470 80C476.075 80 481 75.0751 481 69C481 62.9249 476.075 58 470 58C463.925 58 459 62.9249 459 69C459 75.0751 463.925 80 470 80Z" fill="black"/>
</svg>
