<svg width="28" height="28" viewBox="0 0 28 28" fill="none" xmlns="http://www.w3.org/2000/svg">
<path d="M27 20C27 23.866 23.866 27 20 27C16.134 27 13 23.866 13 20C13 16.134 16.134 13 20 13C23.866 13 27 16.134 27 20Z" stroke="#565C62" stroke-width="2" stroke-miterlimit="10" stroke-linecap="round" stroke-linejoin="round"/>
<path d="M18.0805 20.6131L17.559 22.8713C17.5268 23.0109 17.5828 23.1562 17.7011 23.2377C17.761 23.279 17.8303 23.3 17.8999 23.3C17.9675 23.3 18.0354 23.2804 18.0942 23.2412L20 21.9707L21.9058 23.2412C22.0276 23.3224 22.1875 23.3193 22.3065 23.2328C22.4248 23.1464 22.477 22.9948 22.4367 22.8541L21.7966 20.6141L23.3842 19.1854C23.4882 19.0916 23.5263 18.9453 23.4815 18.813C23.4363 18.6807 23.317 18.5876 23.1777 18.5764L21.1823 18.4175L20.3188 16.5062C20.2625 16.3805 20.1375 16.3 20 16.3C19.8624 16.3 19.7375 16.3805 19.6811 16.5062L18.8177 18.4175L16.8223 18.5761C16.6851 18.5869 16.5671 18.6769 16.5209 18.806C16.474 18.9352 16.5076 19.0797 16.6056 19.1756L18.0805 20.6131Z" fill="#565C62"/>
<path fill-rule="evenodd" clip-rule="evenodd" d="M21.3851 5.48083C22.2753 5.41843 23.3071 6.07611 23.6814 6.94261C23.8595 7.39188 23.9072 7.88235 23.8189 8.35753C23.7306 8.83271 23.5099 9.27329 23.1823 9.62852C22.5248 10.2334 22.0593 11.2199 22.0761 11.8512C22.0797 11.9851 22.1046 12.1342 22.1481 12.2917C21.4646 12.1016 20.7441 12 20 12C18.7843 12 17.632 12.2712 16.6002 12.7563C16.7425 11.8828 16.6349 10.9794 16.279 10.1542C15.9136 9.30546 15.3047 8.58424 14.5294 8.08178C13.7541 7.57931 12.8472 7.31819 11.9235 7.33145C10.9998 7.3447 10.1008 7.63174 9.34025 8.15625C8.57968 8.68075 7.99173 9.41915 7.65078 10.278C7.30984 11.1369 7.23123 12.0776 7.4249 12.9812C7.61857 13.8847 8.07581 14.7105 8.73878 15.3541C9.40174 15.9976 10.2406 16.43 11.1493 16.5964C11.6814 16.6939 12.2234 16.6977 12.7515 16.6104C12.2694 17.6396 12 18.7884 12 20C12 20.7239 12.0961 21.4252 12.2763 22.0921C12.2343 22.0891 12.1936 22.0878 12.1543 22.0884C11.5304 22.098 10.5515 22.59 9.96599 23.2597C9.38052 23.9294 8.19279 24.1958 7.30978 23.8454C6.42677 23.4949 5.73813 22.4916 5.77172 21.5963C5.80531 20.701 5.43579 19.6785 4.97989 19.2441C4.52399 18.8096 3.49462 18.4616 2.60442 18.524C1.71421 18.5864 0.68724 17.9287 0.308124 17.0574C-0.0709929 16.1861 0.164155 14.986 0.819211 14.3811C1.47427 13.7762 1.93976 12.7801 1.92057 12.1584C1.90137 11.5367 1.40948 10.555 0.740028 9.96936C0.0705759 9.38369 -0.195765 8.19315 0.154557 7.31225C0.50488 6.43135 1.51266 5.74487 2.40286 5.77367C3.29307 5.80247 4.32004 5.43763 4.75434 4.98158C5.18865 4.52552 5.53657 3.4958 5.47418 2.6053C5.4118 1.71479 6.07405 0.682672 6.94026 0.308228C7.80647 -0.0662163 9.00861 0.166611 9.61327 0.819488C10.2179 1.47236 11.2113 1.94042 11.8352 1.92122C12.459 1.90201 13.4404 1.40996 14.0259 0.740278C14.6114 0.0705998 15.8015 -0.195832 16.6821 0.15461C17.5627 0.505051 18.2514 1.50837 18.2178 2.40367C18.1842 3.29898 18.5537 4.3263 19.0096 4.76075C19.4655 5.1952 20.4949 5.54324 21.3851 5.48083Z" fill="#565C62"/>
</svg>
