<svg width="28" height="28" viewBox="0 0 28 28" fill="none" xmlns="http://www.w3.org/2000/svg">
<g clip-path="url(#clip0)">
<path d="M26.9984 14.538C27.0214 14.949 26.7914 15.332 26.4174 15.504L18.9134 18.946L15.4714 26.449C15.3074 26.805 14.9514 27.032 14.5624 27.032C14.5434 27.032 14.5254 27.031 14.5054 27.03C14.0954 27.008 13.7404 26.735 13.6114 26.344L8.01642 9.312C7.89942 8.954 7.99342 8.559 8.25942 8.292C8.52542 8.025 8.91942 7.934 9.27942 8.049L26.3124 13.645C26.7034 13.773 26.9764 14.128 26.9984 14.538Z" fill="#565C62"/>
<path d="M4.04275 11.86C1.88737 9.70462 1.92162 6.17649 4.11927 3.97884C6.31691 1.7812 9.84505 1.74694 12.0004 3.90233" stroke="#565C62" stroke-width="2" stroke-linecap="round" stroke-linejoin="round"/>
</g>
<defs>
<clipPath id="clip0">
<rect width="28" height="28" fill="white" transform="matrix(-1 0 0 1 28 0)"/>
</clipPath>
</defs>
</svg>
