<svg width="17" height="17" viewBox="0 0 17 17" fill="none" xmlns="http://www.w3.org/2000/svg">
<path d="M14.9993 9.33229C15.0357 9.06667 15.0539 8.79219 15.0539 8.5C15.0539 8.21667 15.0357 7.93333 14.9901 7.66771L16.838 6.26875C17.0018 6.14479 17.0473 5.90573 16.9472 5.72865L15.1995 2.78906C15.0903 2.59427 14.8627 2.53229 14.6625 2.59427L12.4869 3.44427C12.0318 3.10781 11.5494 2.82448 11.0123 2.61198L10.6846 0.363021C10.6482 0.150521 10.4662 0 10.2477 0H6.7523C6.53384 0 6.36089 0.150521 6.32448 0.363021L5.99679 2.61198C5.45973 2.82448 4.96819 3.11667 4.52217 3.44427L2.34665 2.59427C2.14639 2.52344 1.91883 2.59427 1.8096 2.78906L0.0710005 5.72865C-0.0382306 5.91458 -0.0018203 6.14479 0.180232 6.26875L2.02806 7.66771C1.98254 7.93333 1.94613 8.22552 1.94613 8.5C1.94613 8.77448 1.96434 9.06667 2.00985 9.33229L0.162026 10.7312C-0.00182029 10.8552 -0.0473331 11.0943 0.0527954 11.2714L1.80049 14.2109C1.90972 14.4057 2.13729 14.4677 2.33755 14.4057L4.51306 13.5557C4.96819 13.8922 5.45063 14.1755 5.98768 14.388L6.31538 16.637C6.36089 16.8495 6.53384 17 6.7523 17H10.2477C10.4662 17 10.6482 16.8495 10.6755 16.637L11.0032 14.388C11.5403 14.1755 12.0318 13.8922 12.4778 13.5557L14.6534 14.4057C14.8536 14.4766 15.0812 14.4057 15.1904 14.2109L16.9381 11.2714C17.0473 11.0766 17.0018 10.8552 16.8289 10.7312L14.9993 9.33229ZM8.5 11.6875C6.69769 11.6875 5.22307 10.2531 5.22307 8.5C5.22307 6.74687 6.69769 5.3125 8.5 5.3125C10.3023 5.3125 11.7769 6.74687 11.7769 8.5C11.7769 10.2531 10.3023 11.6875 8.5 11.6875Z" fill="#23282D"/>
</svg>
