<svg width="743" height="125" viewBox="0 0 743 125" fill="none" xmlns="http://www.w3.org/2000/svg">
<g clip-path="url(#clip0)">
<path d="M695.571 52.439V121.753H665.494V55.8384C665.494 36.6616 659.228 28.9177 642.346 28.9177C637.69 29.0555 633.114 30.1454 628.907 32.1185C624.7 34.0915 620.952 36.905 617.901 40.3811V121.753L587.809 121.753V5.09145H616.003V14.3902C624.768 5.41157 636.358 1.99693 647.947 1.99693C661.096 1.99693 672.058 5.71136 680.833 13.1402C691.481 21.814 695.571 32.9421 695.571 52.439Z" fill="black"/>
<path d="M570.602 39.4207C570.593 39.3755 570.593 39.3288 570.602 39.2836C565.013 26.2242 555.025 15.4756 542.33 8.86003C529.635 2.24442 515.015 0.168841 500.947 2.98515C486.88 5.80147 474.232 13.3364 465.146 24.3125C456.061 35.2887 451.097 49.0307 451.097 63.2089C451.097 77.3871 456.061 91.129 465.146 102.105C474.232 113.081 486.88 120.616 500.947 123.433C515.015 126.249 529.635 124.173 542.33 117.558C555.025 110.942 565.013 100.194 570.602 87.1342C570.602 87.1342 570.602 87.1342 570.602 87.0275C570.59 86.9981 570.59 86.9653 570.602 86.936C573.79 79.4219 575.432 71.3561 575.432 63.2089C575.432 55.0616 573.79 46.9958 570.602 39.4817V39.4207ZM512.994 96.7073C495.015 96.7073 480.463 81.6921 480.463 63.1707C480.463 44.6494 495.015 29.6342 512.994 29.6342C530.972 29.6342 545.494 44.6646 545.494 63.1707C545.494 81.6768 530.957 96.7073 512.994 96.7073Z" fill="black"/>
<path d="M444.599 3.04879V30.5945C444.599 30.5945 419.537 22.2561 403.889 39.8781V121.235H373.827V4.57318H403.565V8.53659C403.573 8.67368 403.573 8.81109 403.565 8.94818V13.9024C409.213 7.40855 421.435 1.5244 430.818 1.5244C435.462 1.3687 440.104 1.88222 444.599 3.04879Z" fill="black"/>
<path d="M325.895 4.48171V72.3171C325.901 76.3087 324.889 80.2375 322.952 83.7409C321.016 87.2444 318.217 90.2095 314.815 92.3628C311.012 94.8666 306.545 96.2026 301.975 96.2026C297.406 96.2026 292.938 94.8666 289.136 92.3628C285.728 90.2134 282.925 87.2495 280.986 83.7454C279.046 80.2414 278.033 76.3106 278.04 72.3171V4.48171H248.009V71.6463C247.976 77.0848 248.703 82.5018 250.17 87.7439C251.179 91.3462 252.576 94.8315 254.336 98.1402C258.565 106.234 265.106 112.923 273.148 117.378C281.842 122.058 291.629 124.397 301.528 124.162C309.232 124.282 316.888 122.931 324.074 120.183C330.624 117.66 336.55 113.777 341.449 108.796C346.348 103.815 350.106 97.8518 352.469 91.311C352.917 90.122 353.333 88.9024 353.704 87.6524C355.236 82.3799 356 76.9184 355.972 71.4329V4.48171H325.895Z" fill="black"/>
<path d="M235.88 62.9573C235.999 54.4201 234.604 45.9282 231.759 37.8658C229.211 30.7076 225.239 24.1252 220.077 18.5061C215.017 13.0773 208.826 8.79708 201.929 5.96036C194.471 2.9355 186.472 1.42679 178.411 1.52439C170.456 1.43934 162.572 2.99702 155.262 6.09756C148.271 9.10989 141.971 13.492 136.744 18.9787C131.387 24.613 127.193 31.2252 124.398 38.4451C121.378 46.1638 119.865 54.3776 119.938 62.6524C119.846 71.1072 121.359 79.5042 124.398 87.4085C127.192 94.6934 131.431 101.353 136.867 106.997C142.223 112.538 148.694 116.911 155.864 119.832C163.54 122.92 171.759 124.474 180.046 124.405C187.776 124.408 195.445 123.061 202.701 120.427C209.584 118.008 215.938 114.314 221.42 109.543C226.679 104.954 230.775 99.2106 233.38 92.7744H233.195L205.972 82.8506L204.676 85.2439C202.173 89.1208 198.778 92.359 194.769 94.6951C190.333 97.2085 185.298 98.5034 180.185 98.4451C176.651 98.5596 173.131 97.9647 169.836 96.6966C166.542 95.4284 163.542 93.5133 161.019 91.0671C155.967 86.1585 152.773 79.375 151.435 70.7165H235.864L235.88 62.9573ZM151.898 49.9695C152.968 43.1353 156.211 36.8143 161.157 31.9207C163.451 29.7516 166.156 28.0518 169.117 26.919C172.078 25.7862 175.236 25.2428 178.411 25.3201C181.519 25.2478 184.611 25.7951 187.501 26.9291C190.391 28.0632 193.02 29.7608 195.232 31.9207C199.748 36.3211 202.603 42.3374 203.796 49.9695H151.898Z" fill="black"/>
<path d="M107.747 52.2408V121.677H77.6698V55.6402C77.6698 36.4177 71.4043 28.6738 54.5216 28.6738C49.864 28.808 45.2856 29.8978 41.0774 31.8739C36.8691 33.85 33.123 36.6692 30.0772 40.1524V121.677H0V4.80182H28.2099V14.0701C37.037 5.09146 48.5648 1.69207 60.1852 1.69207C73.3539 1.69207 84.321 5.41666 93.0864 12.8658C103.673 21.5396 107.747 32.6982 107.747 52.2408Z" fill="black"/>
<path d="M725.309 121.951C734.684 121.951 742.284 114.444 742.284 105.183C742.284 95.9221 734.684 88.4146 725.309 88.4146C715.933 88.4146 708.333 95.9221 708.333 105.183C708.333 114.444 715.933 121.951 725.309 121.951Z" fill="black"/>
</g>
<defs>
<clipPath id="clip0">
<rect width="742.284" height="125" fill="white"/>
</clipPath>
</defs>
</svg>
