<svg width="618" height="618" viewBox="0 0 618 618" fill="none" xmlns="http://www.w3.org/2000/svg">
<rect width="618" height="618" rx="309" fill="white"/>
<path d="M402.716 285.793V432.002H335.8V292.951C335.8 252.474 321.861 236.168 284.3 236.168C273.938 236.45 263.752 238.745 254.389 242.906C245.027 247.067 236.692 253.004 229.916 260.338V432.002H163V185.901H225.762V205.417C245.4 186.511 271.047 179.353 296.901 179.353C326.198 179.353 350.598 187.196 370.1 202.881C393.652 221.146 402.716 244.642 402.716 285.793Z" fill="#131313"/>
<path d="M476.081 439C496.939 439 513.847 423.192 513.847 403.691C513.847 384.191 496.939 368.383 476.081 368.383C455.223 368.383 438.314 384.191 438.314 403.691C438.314 423.192 455.223 439 476.081 439Z" fill="#131313"/>
</svg>
